{"asset":{"version":"2.0","generator":"Blockbench 4.10.1 glTF exporter"},"scenes":[{"nodes":[1],"name":"blockbench_export"}],"scene":0,"nodes":[{"translation":[0,0.21250000000000058,1],"name":"cuboid","mesh":0},{"children":[0]}],"bufferViews":[{"buffer":0,"byteOffset":0,"byteLength":3672,"target":34962,"byteStride":12},{"buffer":0,"byteOffset":3672,"byteLength":3672,"target":34962,"byteStride":12},{"buffer":0,"byteOffset":7344,"byteLength":2448,"target":34962,"byteStride":8},{"buffer":0,"byteOffset":9792,"byteLength":816,"target":34963},{"buffer":0,"byteOffset":10608,"byteLength":8,"target":34963},{"buffer":0,"byteOffset":10616,"byteLength":20,"target":34963}],"buffers":[{"byteLength":10636,"uri":"data:application/octet-stream;base64,"}],"accessors":[{"bufferView":0,"componentType":5126,"count":306,"max":[0.5,0.5625,0.3125],"min":[-0.5,0.16249999403953552,-0.3125],"type":"VEC3"},{"bufferView":1,"componentType":5126,"count":306,"max":[1,1,1],"min":[-1,-1,-1],"type":"VEC3"},{"bufferView":2,"componentType":5126,"count":306,"max":[0.921875,0.546875],"min":[0,0],"type":"VEC2"},{"bufferView":3,"componentType":5123,"count":408,"max":[293],"min":[0],"type":"SCALAR"},{"bufferView":4,"componentType":5123,"count":3,"max":[296],"min":[294],"type":"SCALAR"},{"bufferView":5,"componentType":5123,"count":9,"max":[305],"min":[297],"type":"SCALAR"}],"materials":[{"pbrMetallicRoughness":{"metallicFactor":0,"roughnessFactor":1,"baseColorTexture":{"index":0}},"alphaMode":"MASK","alphaCutoff":0.05,"doubleSided":true},{"pbrMetallicRoughness":{"metallicFactor":0,"roughnessFactor":1},"alphaMode":"MASK","alphaCutoff":0.05,"doubleSided":true}],"textures":[{"sampler":0,"source":0,"name":"texture.png"}],"samplers":[{"magFilter":9728,"minFilter":9728,"wrapS":33071,"wrapT":33071}],"images":[{"mimeType":"image/png","uri":"data:image/png;base64,"}],"meshes":[{"primitives":[{"mode":4,"attributes":{"POSITION":0,"NORMAL":1,"TEXCOORD_0":2},"indices":3,"material":0},{"mode":4,"attributes":{"POSITION":0,"NORMAL":1,"TEXCOORD_0":2},"indices":4,"material":1},{"mode":4,"attributes":{"POSITION":0,"NORMAL":1,"TEXCOORD_0":2},"indices":5,"material":0}]}]}