{"asset":{"version":"2.0","generator":"Blockbench 4.9.4 glTF exporter"},"scenes":[{"nodes":[7],"name":"blockbench_export"}],"scene":0,"nodes":[{"translation":[0,1.4375,0],"name":"cuboid","mesh":0},{"name":"rocket","children":[0]},{"name":"cuboid","mesh":1},{"name":"cuboid","mesh":2},{"name":"cuboid","mesh":3},{"name":"cuboid","mesh":4},{"rotation":[0,0.7071067811865475,0,0.7071067811865476],"translation":[1.4375,-0.4375,0],"name":"particles3","children":[2,3,4,5]},{"children":[1,6]}],"bufferViews":[{"buffer":0,"byteOffset":0,"byteLength":11616,"target":34962,"byteStride":12},{"buffer":0,"byteOffset":11616,"byteLength":11616,"target":34962,"byteStride":12},{"buffer":0,"byteOffset":23232,"byteLength":7744,"target":34962,"byteStride":8},{"buffer":0,"byteOffset":30976,"byteLength":2892,"target":34963},{"buffer":0,"byteOffset":33868,"byteLength":6912,"target":34962,"byteStride":12},{"buffer":0,"byteOffset":40780,"byteLength":6912,"target":34962,"byteStride":12},{"buffer":0,"byteOffset":47692,"byteLength":4608,"target":34962,"byteStride":8},{"buffer":0,"byteOffset":52300,"byteLength":1728,"target":34963},{"buffer":0,"byteOffset":54028,"byteLength":6912,"target":34962,"byteStride":12},{"buffer":0,"byteOffset":60940,"byteLength":6912,"target":34962,"byteStride":12},{"buffer":0,"byteOffset":67852,"byteLength":4608,"target":34962,"byteStride":8},{"buffer":0,"byteOffset":72460,"byteLength":1728,"target":34963},{"buffer":0,"byteOffset":74188,"byteLength":6912,"target":34962,"byteStride":12},{"buffer":0,"byteOffset":81100,"byteLength":6912,"target":34962,"byteStride":12},{"buffer":0,"byteOffset":88012,"byteLength":4608,"target":34962,"byteStride":8},{"buffer":0,"byteOffset":92620,"byteLength":1728,"target":34963},{"buffer":0,"byteOffset":94348,"byteLength":6912,"target":34962,"byteStride":12},{"buffer":0,"byteOffset":101260,"byteLength":6912,"target":34962,"byteStride":12},{"buffer":0,"byteOffset":108172,"byteLength":4608,"target":34962,"byteStride":8},{"buffer":0,"byteOffset":112780,"byteLength":1728,"target":34963}],"buffers":[{"byteLength":114508,"uri":"data:application/octet-stream;base64,"}],"accessors":[{"bufferView":0,"componentType":5126,"count":968,"max":[0.984375,4.6875,0.984375],"min":[-0.984375,0.4375,-0.984375],"type":"VEC3"},{"bufferView":1,"componentType":5126,"count":968,"max":[1,1,1],"min":[-1,-1,-1],"type":"VEC3"},{"bufferView":2,"componentType":5126,"count":968,"max":[0.89453125,0.85546875],"min":[0,0],"type":"VEC2"},{"bufferView":3,"componentType":5123,"count":1446,"max":[967],"min":[0],"type":"SCALAR"},{"bufferView":4,"componentType":5126,"count":576,"max":[0.21562500298023224,2.25,-0.375],"min":[-0.28437501192092896,0.9375,-1.0625],"type":"VEC3"},{"bufferView":5,"componentType":5126,"count":576,"max":[1,1,1],"min":[-1,-1,-1],"type":"VEC3"},{"bufferView":6,"componentType":5126,"count":576,"max":[0.546875,0.546875],"min":[0,0],"type":"VEC2"},{"bufferView":7,"componentType":5123,"count":864,"max":[575],"min":[0],"type":"SCALAR"},{"bufferView":8,"componentType":5126,"count":576,"max":[0.21562500298023224,2.25,-1.75],"min":[-0.28437501192092896,0.9375,-2.4375],"type":"VEC3"},{"bufferView":9,"componentType":5126,"count":576,"max":[1,1,1],"min":[-1,-1,-1],"type":"VEC3"},{"bufferView":10,"componentType":5126,"count":576,"max":[0.546875,0.546875],"min":[0,0],"type":"VEC2"},{"bufferView":11,"componentType":5123,"count":864,"max":[575],"min":[0],"type":"SCALAR"},{"bufferView":12,"componentType":5126,"count":576,"max":[-0.40937501192092896,2.25,-1.0625],"min":[-0.909375011920929,0.9375,-1.75],"type":"VEC3"},{"bufferView":13,"componentType":5126,"count":576,"max":[1,1,1],"min":[-1,-1,-1],"type":"VEC3"},{"bufferView":14,"componentType":5126,"count":576,"max":[0.546875,0.546875],"min":[0,0],"type":"VEC2"},{"bufferView":15,"componentType":5123,"count":864,"max":[575],"min":[0],"type":"SCALAR"},{"bufferView":16,"componentType":5126,"count":576,"max":[0.903124988079071,2.25,-1.125],"min":[0.40312498807907104,0.9375,-1.8125],"type":"VEC3"},{"bufferView":17,"componentType":5126,"count":576,"max":[1,1,1],"min":[-1,-1,-1],"type":"VEC3"},{"bufferView":18,"componentType":5126,"count":576,"max":[0.546875,0.546875],"min":[0,0],"type":"VEC2"},{"bufferView":19,"componentType":5123,"count":864,"max":[575],"min":[0],"type":"SCALAR"}],"materials":[{"pbrMetallicRoughness":{"metallicFactor":0,"roughnessFactor":1,"baseColorTexture":{"index":0}},"alphaMode":"MASK","alphaCutoff":0.05,"doubleSided":true},{"pbrMetallicRoughness":{"metallicFactor":0,"roughnessFactor":1,"baseColorTexture":{"index":1}},"alphaMode":"MASK","alphaCutoff":0.05,"doubleSided":true}],"textures":[{"sampler":0,"source":0},{"sampler":1,"source":1}],"samplers":[{"magFilter":9728,"minFilter":9728,"wrapS":33071,"wrapT":33071},{"magFilter":9728,"minFilter":9728,"wrapS":33071,"wrapT":33071}],"images":[{"mimeType":"image/png","uri":"data:image/png;base64,"},{"mimeType":"image/png","uri":"data:image/png;base64,"}],"meshes":[{"primitives":[{"mode":4,"attributes":{"POSITION":0,"NORMAL":1,"TEXCOORD_0":2},"indices":3,"material":0}]},{"primitives":[{"mode":4,"attributes":{"POSITION":4,"NORMAL":5,"TEXCOORD_0":6},"indices":7,"material":1}]},{"primitives":[{"mode":4,"attributes":{"POSITION":8,"NORMAL":9,"TEXCOORD_0":10},"indices":11,"material":1}]},{"primitives":[{"mode":4,"attributes":{"POSITION":12,"NORMAL":13,"TEXCOORD_0":14},"indices":15,"material":1}]},{"primitives":[{"mode":4,"attributes":{"POSITION":16,"NORMAL":17,"TEXCOORD_0":18},"indices":19,"material":1}]}]}