{"asset":{"version":"2.0","generator":"Blockbench 4.9.4 glTF exporter"},"scenes":[{"nodes":[1],"name":"blockbench_export"}],"scene":0,"nodes":[{"rotation":[0.3826834323650898,0,0,0.9238795325112867],"translation":[0,2.9375,0.0625],"name":"cuboid","mesh":0},{"children":[0]}],"bufferViews":[{"buffer":0,"byteOffset":0,"byteLength":39264,"target":34962,"byteStride":12},{"buffer":0,"byteOffset":39264,"byteLength":39264,"target":34962,"byteStride":12},{"buffer":0,"byteOffset":78528,"byteLength":26176,"target":34962,"byteStride":8},{"buffer":0,"byteOffset":104704,"byteLength":2892,"target":34963},{"buffer":0,"byteOffset":107596,"byteLength":6912,"target":34963}],"buffers":[{"byteLength":114508,"uri":"data:application/octet-stream;base64,"}],"accessors":[{"bufferView":0,"componentType":5126,"count":3272,"max":[1.0625,2.625,0.984375],"min":[-1,-3,-0.984375],"type":"VEC3"},{"bufferView":1,"componentType":5126,"count":3272,"max":[1,1,1],"min":[-1,-1,-1],"type":"VEC3"},{"bufferView":2,"componentType":5126,"count":3272,"max":[0.89453125,0.85546875],"min":[0,0],"type":"VEC2"},{"bufferView":3,"componentType":5123,"count":1446,"max":[967],"min":[0],"type":"SCALAR"},{"bufferView":4,"componentType":5123,"count":3456,"max":[3271],"min":[968],"type":"SCALAR"}],"materials":[{"pbrMetallicRoughness":{"metallicFactor":0,"roughnessFactor":1,"baseColorTexture":{"index":0}},"alphaMode":"MASK","alphaCutoff":0.05,"doubleSided":true},{"pbrMetallicRoughness":{"metallicFactor":0,"roughnessFactor":1,"baseColorTexture":{"index":1}},"alphaMode":"MASK","alphaCutoff":0.05,"doubleSided":true}],"textures":[{"sampler":0,"source":0},{"sampler":1,"source":1}],"samplers":[{"magFilter":9728,"minFilter":9728,"wrapS":33071,"wrapT":33071},{"magFilter":9728,"minFilter":9728,"wrapS":33071,"wrapT":33071}],"images":[{"mimeType":"image/png","uri":"data:image/png;base64,"},{"mimeType":"image/png","uri":"data:image/png;base64,"}],"meshes":[{"primitives":[{"mode":4,"attributes":{"POSITION":0,"NORMAL":1,"TEXCOORD_0":2},"indices":3,"material":0},{"mode":4,"attributes":{"POSITION":0,"NORMAL":1,"TEXCOORD_0":2},"indices":4,"material":1}]}]}